<svg id="Capa_1" enable-background="new 0 0 511.513 511.513" height="512" viewBox="0 0 511.513 511.513" width="512" xmlns="http://www.w3.org/2000/svg"><g><g><path d="m190.437 487.865c6.435 3.798 13.771 5.802 21.243 5.802h121.441 40.268c15.227 0 27.903-12.321 27.633-27.546-.177-10.005-5.79-18.678-14.008-23.209-.607-.334-.998-.957-.998-1.65v-.052c0-.866.595-1.624 1.441-1.81 12.139-2.667 21.225-13.481 21.225-26.421 0-7.921-3.404-15.045-8.828-19.994 10.901-4.206 18.639-14.776 18.639-27.161 0-9.761-4.809-18.393-12.182-23.674 10.282-5.141 17.347-15.763 17.347-28.041 0-17.308-14.031-31.339-31.339-31.339h-64.63c-4.575 0-7.616-4.733-5.716-8.894l7.671-16.794c4.45-9.743 6.754-20.33 6.754-31.042v-34.923c0-5.034-.985-10.02-2.899-14.676-4.957-12.056-16.702-19.926-29.737-19.926h-.066c-8.87 0-16.882 5.295-20.36 13.454l-13.492 31.655-50.804 29.58-8.329 3.539c-11.451 4.866-20.722 13.759-26.06 24.997l-60.005 123.661v67.836z" fill="#ffe5c2"/><g><path d="m375.884 454.983h-40.268-121.441c-7.472 0-14.808-2.003-21.243-5.802l-65.792-36.628v-34.296l-2.496 5.144v67.836l65.792 36.628c6.435 3.798 13.771 5.802 21.243 5.802h121.441 40.267c15.227 0 27.903-12.321 27.633-27.546-.121-6.845-2.789-13.064-7.092-17.762-4.869 4.127-11.196 6.624-18.044 6.624z" fill="#fed2a4"/></g><g><path d="m49.679 504.013h101.216c12.384 0 22.422-10.039 22.422-22.422v-205.883c0-12.384-10.039-22.422-22.422-22.422h-101.216c-7.511 0-13.6 6.089-13.6 13.6v223.526c-.001 7.512 6.088 13.601 13.6 13.601z" fill="#f37c7c"/><path d="m150.895 253.286h-4.408v167.881c0 19.322-15.664 34.986-34.986 34.986h-75.423v34.26c0 7.511 6.089 13.6 13.6 13.6h101.216c12.384 0 22.422-10.039 22.422-22.422v-205.883c.001-12.383-10.038-22.422-22.421-22.422z" fill="#ee6161"/><g fill="#fee45a"><path d="m327.913 115.929-23.416-12.17c-2.255-1.172-4.941-1.159-7.185.034l-23.3 12.39c-5.65 3.004-12.292-1.774-11.24-8.086l4.339-26.031c.418-2.506-.425-5.058-2.252-6.823l-18.984-18.331c-4.603-4.445-2.111-12.238 4.217-13.188l26.097-3.918c2.513-.377 4.679-1.967 5.793-4.251l11.568-23.719c2.805-5.751 10.987-5.79 13.846-.065l11.79 23.609c1.135 2.273 3.316 3.842 5.833 4.196l26.133 3.672c6.337.89 8.902 8.66 4.341 13.148l-18.81 18.509c-1.811 1.782-2.629 4.341-2.188 6.844l4.583 25.989c1.109 6.301-5.488 11.141-11.165 8.191z"/><path d="m192.021 156.481-18.692-9.715c-1.8-.935-3.945-.925-5.735.027l-18.6 9.891c-4.51 2.398-9.812-1.416-8.972-6.454l3.463-20.779c.333-2.001-.339-4.037-1.798-5.446l-15.154-14.633c-3.674-3.548-1.685-9.769 3.366-10.528l20.832-3.127c2.006-.301 3.735-1.57 4.624-3.393l9.234-18.934c2.239-4.591 8.77-4.622 11.053-.052l9.412 18.846c.906 1.815 2.647 3.067 4.656 3.349l20.861 2.931c5.058.711 7.106 6.913 3.465 10.496l-15.016 14.775c-1.446 1.423-2.099 3.466-1.747 5.463l3.659 20.746c.887 5.028-4.379 8.892-8.911 6.537z"/><path d="m408.054 156.481 18.692-9.715c1.8-.935 3.945-.925 5.735.027l18.6 9.891c4.51 2.398 9.812-1.416 8.972-6.454l-3.463-20.779c-.333-2.001.339-4.037 1.798-5.446l15.154-14.633c3.674-3.548 1.685-9.769-3.366-10.528l-20.832-3.127c-2.006-.301-3.735-1.57-4.624-3.393l-9.234-18.934c-2.239-4.591-8.77-4.622-11.053-.052l-9.412 18.846c-.906 1.815-2.647 3.067-4.656 3.349l-20.861 2.931c-5.058.711-7.106 6.913-3.465 10.496l15.016 14.775c1.446 1.423 2.099 3.466 1.747 5.463l-3.659 20.746c-.887 5.028 4.379 8.892 8.911 6.537z"/></g></g></g><g><path d="m431.156 314.11c0-21.416-17.423-38.839-38.839-38.839h-8.125c-4.142 0-7.5 3.358-7.5 7.5s3.358 7.5 7.5 7.5h8.125c13.145 0 23.839 10.694 23.839 23.839 0 9.087-5.058 17.262-13.201 21.333-2.351 1.175-3.916 3.496-4.123 6.117-.208 2.62.972 5.158 3.109 6.689 5.667 4.058 9.049 10.629 9.049 17.577 0 8.867-5.561 16.97-13.838 20.163-2.425.936-4.192 3.059-4.672 5.613-.479 2.554.397 5.174 2.317 6.925 4.056 3.7 6.383 8.968 6.383 14.452 0 9.113-6.449 17.144-15.333 19.096-4.249.932-7.333 4.774-7.333 9.188 0 3.41 1.868 6.558 4.876 8.217 6.125 3.377 10.007 9.804 10.13 16.773.092 5.154-1.888 10.059-5.575 13.811-3.81 3.878-9.116 6.102-14.559 6.102h-161.706c-6.127 0-12.154-1.646-17.431-4.761l-13.432-7.928v-37.76c0-4.142-3.358-7.5-7.5-7.5s-7.5 3.358-7.5 7.5v45.872c0 8.228-6.694 14.922-14.922 14.922h-114.816c-4.142 0-7.5 3.358-7.5 7.5s3.358 7.5 7.5 7.5h114.816c13.523 0 24.974-9.02 28.667-21.358l7.063 4.168c7.584 4.477 16.248 6.843 25.055 6.843h161.708c9.441 0 18.647-3.86 25.259-10.59 6.53-6.646 10.036-15.379 9.873-24.589-.155-8.732-3.642-16.981-9.508-23.167 10.354-6.085 17.169-17.392 17.169-29.841 0-6.32-1.747-12.476-4.95-17.807 9.09-6.815 14.76-17.691 14.76-29.347 0-8.295-2.842-16.271-7.875-22.662 8.213-7.254 13.04-17.716 13.04-29.051z"/><path d="m259.647 80.638c.053.051.077.124.065.195l-4.339 26.031c-.959 5.756 1.388 11.45 6.125 14.857 2.657 1.912 5.755 2.881 8.875 2.881 2.442 0 4.896-.595 7.159-1.798l23.302-12.391c.063-.033.139-.035.203 0l23.416 12.17c5.178 2.69 11.317 2.219 16.023-1.234 4.705-3.453 6.998-9.167 5.985-14.915l-4.584-25.988c-.012-.071.011-.145.063-.195l18.81-18.509c4.16-4.093 5.607-10.079 3.778-15.621s-6.556-9.489-12.335-10.301l-26.133-3.672c-.072-.01-.134-.055-.166-.12l-11.79-23.608c-2.597-5.199-7.808-8.42-13.614-8.42-.025 0-.05 0-.074 0-5.836.027-11.05 3.303-13.608 8.548l-11.568 23.719c-.032.065-.093.11-.165.121l-26.098 3.917c-5.771.867-10.46 4.858-12.237 10.417s-.273 11.53 3.925 15.583zm-8.553-29.47s.029-.016.109-.028l26.099-3.917c4.954-.745 9.223-3.877 11.419-8.38l11.568-23.72c.035-.072.059-.095.059-.095.054-.038.223-.038.275-.002 0 0 .024.023.061.096l11.791 23.609c2.238 4.483 6.537 7.575 11.499 8.272l26.133 3.672c.079.011.108.026.109.026.052.04.104.2.087.262 0 0-.014.03-.072.087l-18.81 18.508c-3.572 3.514-5.185 8.559-4.315 13.493l4.583 25.988c.014.08.009.112.009.112-.022.062-.157.162-.222.164 0 0-.033-.004-.105-.042l-23.416-12.17c-4.446-2.311-9.742-2.286-14.165.067l-23.301 12.39c-.07.038-.103.043-.104.043-.066-.001-.203-.1-.225-.161 0 0-.006-.032.007-.113l4.339-26.031c.823-4.942-.837-9.97-4.441-13.451l-18.983-18.331c-.058-.056-.073-.085-.073-.085-.017-.062.034-.223.085-.263z"/><path d="m135.971 128.91-3.347 20.085c-.861 5.167 1.246 10.278 5.499 13.337 2.385 1.716 5.167 2.586 7.966 2.586 2.192 0 4.396-.534 6.426-1.614l17.979-9.56 18.067 9.39c4.648 2.415 10.16 1.991 14.383-1.107 4.224-3.1 6.283-8.23 5.373-13.389l-3.537-20.053 14.514-14.282c3.734-3.674 5.034-9.047 3.391-14.022s-5.885-8.517-11.073-9.246l-20.165-2.833-9.098-18.218c-2.331-4.667-7.009-7.558-12.222-7.558-.021 0-.044 0-.066 0-5.238.024-9.919 2.964-12.216 7.673l-8.926 18.303-20.137 3.023c-5.181.778-9.391 4.361-10.986 9.351s-.245 10.35 3.523 13.988zm15.874-25.778c4.447-.668 8.279-3.48 10.251-7.522l8.046-16.499 8.201 16.422c2.009 4.024 5.868 6.8 10.323 7.426l18.177 2.554-13.083 12.874c-3.206 3.154-4.654 7.682-3.873 12.112l3.188 18.077-16.289-8.466c-3.99-2.074-8.744-2.05-12.714.061l-16.208 8.618 3.018-18.106c.739-4.437-.751-8.951-3.986-12.074l-13.205-12.751z"/><path d="m482.275 100.777c-1.595-4.99-5.805-8.573-10.986-9.351l-20.137-3.023-8.926-18.303c-2.296-4.708-6.978-7.648-12.216-7.673-5.209.007-9.947 2.872-12.288 7.559l-9.098 18.217-20.164 2.833c-5.188.729-9.431 4.271-11.073 9.246s-.343 10.348 3.391 14.022l14.514 14.282-3.537 20.053c-.91 5.159 1.149 10.29 5.373 13.389s9.735 3.523 14.383 1.107l18.067-9.39 17.979 9.56c2.032 1.081 4.234 1.615 6.427 1.615 2.799 0 5.582-.871 7.966-2.586 4.253-3.059 6.36-8.17 5.499-13.337l-3.347-20.086 14.648-14.145c3.77-3.64 5.121-8.999 3.525-13.989zm-29.096 17.831c-3.235 3.124-4.726 7.638-3.986 12.075l3.018 18.106-16.207-8.618c-2.005-1.066-4.209-1.6-6.415-1.6-2.162 0-4.325.513-6.301 1.54l-16.288 8.465 3.188-18.078c.781-4.43-.667-8.957-3.873-12.11l-13.084-12.875 18.177-2.554c4.455-.626 8.313-3.402 10.323-7.426l8.201-16.422 8.046 16.5c1.972 4.042 5.804 6.854 10.251 7.522l18.153 2.725z"/><path d="m36.079 260.786h32.002c4.142 0 7.5-3.358 7.5-7.5s-3.358-7.5-7.5-7.5h-32.002c-4.142 0-7.5 3.358-7.5 7.5s3.357 7.5 7.5 7.5z"/><path d="m100.043 260.786h50.852c8.228 0 14.922 6.694 14.922 14.922v128.047c0 4.142 3.358 7.5 7.5 7.5s7.5-3.358 7.5-7.5v-118.47l10.606-22.327c4.556-9.591 12.447-17.16 22.219-21.313l8.329-3.539c.289-.123.569-.264.841-.421l50.804-29.58c1.396-.813 2.492-2.055 3.125-3.541l13.492-31.655c2.303-5.403 7.586-8.895 13.526-8.895 10.035 0 18.985 5.997 22.8 15.278 1.55 3.769 2.336 7.747 2.336 11.823v34.924c0 9.704-2.044 19.099-6.076 27.925l-7.671 16.794c-1.958 4.287-1.606 9.214.942 13.179s6.883 6.332 11.596 6.332h24.542c4.142 0 7.5-3.358 7.5-7.5s-3.358-7.5-7.5-7.5h-22.65l6.884-15.072c4.932-10.796 7.432-22.289 7.432-34.158v-34.924c0-6.043-1.165-11.94-3.463-17.527-6.137-14.928-20.532-24.574-36.739-24.574-11.896 0-22.595 7.071-27.259 18.013l-12.517 29.366-48.247 28.091-7.896 3.355c-13.151 5.589-23.77 15.775-29.901 28.681l-1.599 3.365c-5.292-8.459-14.688-14.101-25.381-14.101h-50.852c-4.142 0-7.5 3.358-7.5 7.5s3.361 7.502 7.503 7.502z"/></g></g></svg>